<svg class="icon" viewBox="0 0 1024 1024" xmlns="http://www.w3.org/2000/svg" width="48" height="48"><path d="M936.9 407.6h-43.2c-17.9 0-32.7 14.3-32.7 32.7 0 18.4 14.7 32.7 32.7 32.7h43.2c17.9 0 32.7-14.3 32.7-32.7 0-18.4-14.7-32.7-32.7-32.7zm-437.3-97.5c12.4 12.4 33.6 12.4 46 0s12.4-33.1 0-46l-30.8-30.4c-12.4-12.4-33.6-12.4-46 0-12.4 12.4-12.4 33.1 0 45.5 0 .1 30.8 30.9 30.8 30.9zM884 234.2c-12.4-12.4-33.6-12.4-46 0l-30.8 30.4c-12.4 12.4-12.4 33.1 0 46 12.4 12 33.1 12 46-.5l30.8-30.4c12.5-12.8 12.5-33.1 0-45.5zm-207.8 22.1c17.9 0 32.7-14.3 32.7-32.7v-43.2c0-17.9-14.7-32.7-32.7-32.7s-32.7 14.3-32.7 32.7v43.2c0 18.4 14.7 32.7 32.7 32.7z" fill="#FFCD00"/><path d="M679.4 575.9c82.8 0 149.9 69 149.9 151.3 0 77.3-59.8 141.6-135.2 149H199.3c-84.6-12-144.9-86-144.9-173.4 0-81.9 56.6-150.4 132.9-168.8 24.8-89.7 109.5-158.2 206.9-158.2 117.7 0 210.2 98.4 210.2 214.8 0 2.8-.5 5.1-.5 8.3 22.2-12.9 47.9-23 75.5-23z" fill="#E5E5E5"/><path d="M647.3 519.8c8.9-1.3 17.3-2.1 25.8-2.1 36 0 69.4 10.2 98.2 27.9 30-27.5 49.1-66.4 49.1-110.8 0-82.5-66.8-148.9-148.9-148.9-58.8 0-110 34.3-133.7 84.2 53.3 32.9 93.5 86.6 109.5 149.7z" fill="#FFCD00"/></svg>