<svg class="icon" viewBox="0 0 1024 1024" xmlns="http://www.w3.org/2000/svg" width="48" height="48"><path d="M693.3 558.7c86.3 0 156.4 71.9 156.4 157.8 0 80.6-62.4 147.7-141 155.4H192.6C104.3 859.4 41.5 782.2 41.5 691c0-85.4 59-156.8 138.6-176C206 421.5 294.3 350 396 350c122.8 0 219.2 102.6 219.2 224 0 2.9-.5 5.3-.5 8.6 23-13.4 49.8-23.9 78.6-23.9z" fill="#E5E5E5"/><path d="M396 350c122.8 0 219.2 102.6 219.2 224 0 2.9-.5 5.3-.5 8.6 23-13.4 49.9-24 78.7-24 86.3 0 156.4 71.9 156.4 157.8 0 80.6-62.4 147.7-141 155.4H192.6C104.3 859.4 41.5 782.2 41.5 691c0-85.4 59-156.8 138.6-176C206 421.5 294.3 350 396 350" fill="#E5E5E5"/><path d="M851.8 439.6c-122.7 0-222.2-99.5-222.2-222.2 0-22.7 3.4-44.6 9.7-65.2-67.5 40.2-112.7 113.8-112.7 198 0 .8.1 1.6.1 2.3 62.2 38.3 107.1 102.9 119.6 178.7 15.9-4.7 31.6-7.1 47.1-7.1 48.2 0 92.2 18.1 125.9 47.9 82.2-23 145.8-90.5 163.3-174.9-36.8 26.7-81.9 42.5-130.8 42.5z" fill="#FFCD00"/></svg>