<svg class="icon" viewBox="0 0 1024 1024" xmlns="http://www.w3.org/2000/svg" width="48" height="48"><path d="M450.2 808.1c3.9 1.9 8 2.7 12 2.7 10.4 0 20.4-5.9 25.2-15.9l32.2-67.3c6.6-13.9.8-30.6-13.1-37.2-13.9-6.7-30.6-.8-37.2 13.1L437 770.9c-6.6 13.9-.7 30.5 13.2 37.2zm56.8 30.4c-13.9-6.7-30.6-1-37.3 12.9l-32.6 67.1c-6.7 13.9-1 30.6 12.9 37.3 3.9 1.9 8.1 2.8 12.2 2.8 10.3 0 20.3-5.8 25.1-15.7l32.6-67.1c6.8-13.9 1-30.6-12.9-37.3z" fill="#B3E2FF"/><path d="M894.6 279H859c-14.7 0-26.8 11.7-26.8 26.8s12.1 26.8 26.8 26.8h35.5c14.7 0 26.8-11.7 26.8-26.8s-12-26.8-26.7-26.8zm-359.3-80.1c10.2 10.2 27.6 10.2 37.8 0 10.2-10.2 10.2-27.2 0-37.8l-25.3-24.9c-10.2-10.2-27.6-10.2-37.8 0-10.2 10.2-10.2 27.2 0 37.4l25.3 25.3zm315.8-62.4c-10.2-10.2-27.6-10.2-37.8 0l-25.3 25c-10.2 10.2-10.2 27.2 0 37.8 10.2 9.8 27.2 9.8 37.8-.4l25.3-24.9c10.2-10.7 10.2-27.3 0-37.5zm-170.7 18.2c14.7 0 26.8-11.7 26.8-26.8V92.3c0-14.7-12.1-26.8-26.8-26.8-14.7 0-26.8 11.7-26.8 26.8v35.5c-.1 15.1 12 26.9 26.8 26.9zm-23.7 216.4c19.2-9.9 80.6-15.5 114.1 6.8 22.3-22.3 28.1-40.2 28.1-76.7 0-67.8-54.9-122.3-122.3-122.3-48.3 0-90.4 28.2-109.8 69.2 43.6 27.1 76.7 71.2 89.9 123z" fill="#FFCD00"/><path d="M709 413.7c80.3 0 145.5 57.1 145.5 125.3 0 64-58 117.3-131.2 123.4H243.2c-82.1-9.9-140.5-71.2-140.5-143.6 0-67.8 54.9-124.6 128.9-139.8 24.1-74.3 106.2-131 200.8-131 114.2 0 203.9 81.5 203.9 177.9 0 2.3-.4 4.2-.4 6.9 21.3-10.7 46.3-19.1 73.1-19.1z" fill="#E5E5E5"/></svg>