<svg class="icon" viewBox="0 0 1024 1024" xmlns="http://www.w3.org/2000/svg" width="48" height="48"><path d="M317.4 656.5c-16.2-7.9-35.7-1.1-43.5 15l-38.1 78.2c-7.9 16.2-1.1 35.7 15 43.5 4.6 2.2 9.4 3.3 14.2 3.3 12.1 0 23.7-6.7 29.3-18.3l38.1-78.2c7.9-16.2 1.1-35.7-15-43.5zm0 172.3c-16.2-7.9-35.7-1.1-43.5 15L235.8 922c-7.9 16.2-1.1 35.7 15 43.5 4.6 2.2 9.4 3.3 14.2 3.3 12.1 0 23.7-6.7 29.3-18.3l38.1-78.2c7.9-16.2 1.1-35.7-15-43.5zm343.7-35.5c4.6 2.2 9.4 3.3 14.2 3.3 12.1 0 23.7-6.7 29.3-18.3l38.1-78.2c7.9-16.2 1.1-35.7-15-43.5-16.2-7.9-35.7-1.1-43.5 15L646 749.7c-7.8 16.2-1.1 35.7 15.1 43.6zm66.5 35.5c-16.2-7.9-35.7-1.1-43.5 15L646 922.1c-7.9 16.2-1.1 35.7 15 43.5 4.6 2.2 9.4 3.3 14.2 3.3 12.1 0 23.7-6.7 29.3-18.3l38.1-78.2c7.9-16.3 1.2-35.8-15-43.6z" fill="#B3E2FF"/><path d="M780.9 281.6c93.7 0 169.7 78.1 169.7 171.3 0 87.5-67.7 160.4-153.1 168.7H237.4c-95.8-13.5-164-97.4-164-196.3 0-92.7 64-170.3 150.5-191.1 28-101.5 123.8-179.1 234.2-179.1C591.4 55.1 696 166.5 696 298.2c0 3.1-.5 5.7-.5 9.4 25-14.5 54.2-26 85.4-26z" fill="#E5E5E5"/><path d="M489.9 677.2h-84.1c-11 0-18.6-9.7-14.6-18.7L480.5 450c2.3-5.4 8.1-8.9 14.6-8.9h71.4c11.1 0 18.7 9.9 14.5 19l-54.4 120.5h91.6c13.5 0 20.7 14 11.8 22.9L463.4 859.6c-10.9 11-31.2 1.5-26.9-12.6l53.4-169.8z" fill="#FFCD00"/></svg>