<svg class="icon" viewBox="0 0 1024 1024" xmlns="http://www.w3.org/2000/svg" width="48" height="48"><path d="M782.8 280c94.4 0 170.9 78.6 170.9 172.5 0 88.1-68.2 161.5-154.1 169.9H235.4c-96.5-13.6-165.2-98-165.2-197.7 0-93.3 64.5-171.4 151.5-192.4 28.4-102.2 124.9-180.4 236-180.4 134.2 0 239.6 112.2 239.6 244.8 0 3.1-.5 5.8-.5 9.4 25.2-14.6 54.5-26.1 86-26.1z" fill="#E5E5E5"/><path d="M485.4 503.2h-76.3c-10 0-16.8-8.8-13.3-17l81-189.2c2.1-4.9 7.4-8.1 13.3-8.1h64.8c10.1 0 17 9 13.2 17.2l-49.4 109.3h83.1c12.2 0 18.7 12.7 10.7 20.8L461.4 668.7c-9.9 9.9-28.3 1.3-24.4-11.5l48.4-154z" fill="#FFCD00"/><path d="M322.6 657.5c-16.3-7.9-35.9-1.1-43.8 15.1l-38.3 78.8c-7.9 16.3-1.1 35.9 15.1 43.8 4.6 2.2 9.5 3.3 14.3 3.3 12.2 0 23.8-6.8 29.5-18.4l38.3-78.8c7.9-16.3 1.1-35.9-15.1-43.8zm0 173.5c-16.3-7.9-35.9-1.1-43.8 15.1l-38.3 78.8c-7.9 16.3-1.1 35.9 15.1 43.8 4.6 2.2 9.5 3.3 14.3 3.3 12.2 0 23.8-6.8 29.5-18.4l38.3-78.8c7.9-16.3 1.1-35.9-15.1-43.8zm346.1-35.8c4.6 2.2 9.5 3.3 14.3 3.3 12.2 0 23.8-6.8 29.5-18.4l38.3-78.8c7.9-16.3 1.1-35.9-15.1-43.8-16.3-7.9-35.9-1.1-43.8 15.1l-38.3 78.8c-8 16.3-1.2 35.9 15.1 43.8zm67 35.8c-16.3-7.9-35.9-1.1-43.8 15.1l-38.3 78.8c-7.9 16.3-1.1 35.9 15.1 43.8 4.6 2.2 9.5 3.3 14.3 3.3 12.2 0 23.8-6.8 29.5-18.4l38.3-78.8c7.9-16.3 1.2-35.9-15.1-43.8zm-297.631 46.538a75.4 75.4 0 1 0 106.63-106.634 75.4 75.4 0 1 0-106.63 106.634z" fill="#B3E2FF"/></svg>