<svg class="icon" viewBox="0 0 1024 1024" xmlns="http://www.w3.org/2000/svg" width="48" height="48"><path d="M766.9 293.6c88.8 0 160.9 74 160.9 162.4 0 82.9-64.2 152-145.1 159.9H251.6c-90.8-12.8-155.5-92.3-155.5-186.1 0-87.9 60.7-161.4 142.6-181.1 26.7-96.2 117.5-169.8 222.1-169.8 126.4 0 225.6 105.6 225.6 230.5 0 3-.5 5.4-.5 8.9 23.8-13.8 51.4-24.7 81-24.7z" fill="#E5E5E5"/><path d="M493.9 781.7c-4.5 0-9.1-1-13.5-3.1-15.3-7.5-21.7-25.9-14.3-41.3l36.1-74.2c7.5-15.3 25.9-21.7 41.3-14.3s21.7 25.9 14.3 41.3l-36.1 74.2c-5.3 11.1-16.3 17.4-27.8 17.4zm0 163.4c-4.5 0-9.1-1-13.5-3.1-15.3-7.5-21.7-25.9-14.3-41.3l36.1-74.2c7.5-15.3 25.9-21.7 41.3-14.3s21.7 25.9 14.3 41.3l-36.1 74.2c-5.3 11-16.3 17.4-27.8 17.4z" fill="#B3E2FF"/></svg>