<svg class="icon" viewBox="0 0 1024 1024" xmlns="http://www.w3.org/2000/svg" width="48" height="48"><path d="M775.3 286.5c91.7 0 166.2 76.5 166.2 167.7 0 85.6-66.3 157-149.9 165.1H243.1C149.3 606 82.6 524 82.6 427.1c0-90.7 62.7-166.7 147.3-187.1 27.5-99.4 121.3-175.3 229.4-175.3 130.5 0 232.9 109.1 232.9 238 0 3.1-.5 5.6-.5 9.2 24.4-14.2 53-25.4 83.6-25.4z" fill="#E5E5E5"/><path d="M420.3 653.4c-15.8-7.7-34.9-1.1-42.6 14.7l-37.3 76.6c-7.7 15.8-1.1 34.9 14.7 42.6 4.5 2.2 9.2 3.2 13.9 3.2 11.8 0 23.2-6.6 28.7-17.9L435 696c7.7-15.8 1.1-34.9-14.7-42.6zm0 168.7c-15.8-7.7-34.9-1.1-42.6 14.7l-37.3 76.6c-7.7 15.8-1.1 34.9 14.7 42.6 4.5 2.2 9.2 3.2 13.9 3.2 11.8 0 23.2-6.6 28.7-17.9l37.3-76.6c7.7-15.8 1.1-34.9-14.7-42.6zm157.9-34.8c4.5 2.2 9.2 3.2 13.9 3.2 11.8 0 23.2-6.6 28.7-17.9l37.3-76.6c7.7-15.8 1.1-34.9-14.7-42.6-15.8-7.7-34.9-1.1-42.6 14.7l-37.3 76.6c-7.7 15.9-1.1 34.9 14.7 42.6zm65.2 34.8c-15.8-7.7-34.9-1.1-42.6 14.7l-37.3 76.6c-7.7 15.8-1.1 34.9 14.7 42.6 4.5 2.2 9.2 3.2 13.9 3.2 11.8 0 23.2-6.6 28.7-17.9l37.3-76.6c7.7-15.8 1.1-34.9-14.7-42.6z" fill="#B3E2FF"/></svg>