<svg class="icon" viewBox="0 0 1024 1024" xmlns="http://www.w3.org/2000/svg" width="48" height="48"><path d="M774.3 287.3c91.4 0 165.6 76.2 165.6 167.1 0 85.3-66 156.4-149.3 164.5H244.1c-93.4-13.2-160-95-160-191.5 0-90.4 62.5-166.1 146.8-186.4 27.4-99 120.9-174.7 228.5-174.7 130 0 232.1 108.7 232.1 237.2 0 3-.5 5.6-.5 9.1 24.4-14.2 52.8-25.3 83.3-25.3z" fill="#E5E5E5"/><path d="M266.2 789.6c-4.7 0-9.4-1-13.9-3.2-15.8-7.7-22.3-26.7-14.7-42.5l37.1-76.3c7.7-15.8 26.7-22.3 42.5-14.7 15.8 7.7 22.3 26.7 14.7 42.5l-37.1 76.3c-5.5 11.3-16.9 17.9-28.6 17.9zm0 168.1c-4.7 0-9.4-1-13.9-3.2-15.8-7.7-22.3-26.7-14.7-42.5l37.1-76.3c7.7-15.8 26.7-22.3 42.5-14.7 15.8 7.7 22.3 26.7 14.7 42.5l-37.1 76.3c-5.5 11.3-16.9 17.9-28.6 17.9zm155.3-167c-4.7 0-9.4-1-13.9-3.2-15.8-7.7-22.3-26.7-14.7-42.5l18.7-38.4c7.7-15.8 26.7-22.3 42.5-14.7 15.8 7.7 22.3 26.7 14.7 42.5l-18.7 38.4c-5.5 11.3-16.8 17.9-28.6 17.9zm0 127.9c-4.7 0-9.4-1-13.9-3.2-15.8-7.7-22.3-26.7-14.7-42.5l18.7-38.4c7.7-15.8 26.7-22.3 42.5-14.7 15.8 7.7 22.3 26.7 14.7 42.5l-18.7 38.4c-5.5 11.3-16.8 17.9-28.6 17.9zm292.2-127.9c-4.7 0-9.4-1-13.9-3.2-15.8-7.7-22.3-26.7-14.7-42.5l18.7-38.4c7.7-15.8 26.7-22.3 42.5-14.7 15.8 7.7 22.3 26.7 14.7 42.5l-18.7 38.4c-5.5 11.3-16.8 17.9-28.6 17.9zm0 127.9c-4.7 0-9.4-1-13.9-3.2-15.8-7.7-22.3-26.7-14.7-42.5l18.7-38.4c7.7-15.8 26.7-22.3 42.5-14.7 15.8 7.7 22.3 26.7 14.7 42.5l-18.7 38.4c-5.5 11.3-16.8 17.9-28.6 17.9zm-149-129c-4.7 0-9.4-1-13.9-3.2-15.8-7.7-22.3-26.7-14.7-42.5l37.1-76.3c7.7-15.8 26.7-22.3 42.5-14.7 15.8 7.7 22.3 26.7 14.7 42.5l-37.1 76.3c-5.5 11.3-16.8 17.9-28.6 17.9zm0 168.1c-4.7 0-9.4-1-13.9-3.2-15.8-7.7-22.3-26.7-14.7-42.5l37.1-76.3c7.7-15.8 26.7-22.3 42.5-14.7 15.8 7.7 22.3 26.7 14.7 42.5l-37.1 76.3c-5.5 11.3-16.8 17.9-28.6 17.9z" fill="#B3E2FF"/></svg>