<svg class="icon" viewBox="0 0 1024 1024" xmlns="http://www.w3.org/2000/svg" width="48" height="48"><path d="M771.7 289.5c90.5 0 163.9 75.4 163.9 165.4 0 84.5-65.4 154.9-147.8 162.9h-541c-92.5-13.1-158.4-94-158.4-189.6 0-89.5 61.8-164.4 145.3-184.5 27.2-98 119.7-173 226.3-173 128.7 0 229.8 107.6 229.8 234.8 0 3-.5 5.5-.5 9.1 24.1-14 52.2-25.1 82.4-25.1z" fill="#E5E5E5"/><path d="M361.5 786.8c-4.6 0-9.3-1-13.7-3.2-15.6-7.6-22.1-26.4-14.5-42L370 666c7.6-15.6 26.4-22.1 42-14.5 15.6 7.6 22.1 26.4 14.5 42l-36.8 75.6c-5.3 11.2-16.5 17.7-28.2 17.7zm0 166.4c-4.6 0-9.3-1-13.7-3.2-15.6-7.6-22.1-26.4-14.5-42l36.8-75.6c7.6-15.6 26.4-22.1 42-14.5 15.6 7.6 22.1 26.4 14.5 42l-36.8 75.6c-5.4 11.2-16.6 17.7-28.3 17.7zm128.6-165.3c-4.6 0-9.3-1-13.7-3.2-15.6-7.6-22.1-26.4-14.5-42l18.5-38c7.6-15.6 26.4-22.1 42-14.5 15.6 7.6 22.1 26.4 14.5 42l-18.5 38c-5.4 11.2-16.6 17.7-28.3 17.7zm0 126.6c-4.6 0-9.3-1-13.7-3.2-15.6-7.6-22.1-26.4-14.5-42l18.5-38c7.6-15.6 26.4-22.1 42-14.5 15.6 7.6 22.1 26.4 14.5 42l-18.5 38c-5.4 11.2-16.6 17.7-28.3 17.7zM238.6 787.9c-4.6 0-9.3-1-13.7-3.2-15.6-7.6-22.1-26.4-14.5-42l18.5-38c7.6-15.6 26.4-22.1 42-14.5 15.6 7.6 22.1 26.4 14.5 42l-18.5 38c-5.4 11.2-16.6 17.7-28.3 17.7zm0 126.6c-4.6 0-9.3-1-13.7-3.2-15.6-7.6-22.1-26.4-14.5-42l18.5-38c7.6-15.6 26.4-22.1 42-14.5 15.6 7.6 22.1 26.4 14.5 42l-18.5 38c-5.4 11.2-16.6 17.7-28.3 17.7zm503.1-126.6c-4.6 0-9.3-1-13.7-3.2-15.6-7.6-22.1-26.4-14.5-42l18.5-38c7.6-15.6 26.4-22.1 42-14.5 15.6 7.6 22.1 26.4 14.5 42l-18.5 38c-5.4 11.2-16.6 17.7-28.3 17.7zm0 126.6c-4.6 0-9.3-1-13.7-3.2-15.6-7.6-22.1-26.4-14.5-42l18.5-38c7.6-15.6 26.4-22.1 42-14.5 15.6 7.6 22.1 26.4 14.5 42l-18.5 38c-5.4 11.2-16.6 17.7-28.3 17.7zM619.4 786.8c-4.6 0-9.3-1-13.7-3.2-15.6-7.6-22.1-26.4-14.5-42L628 666c7.6-15.6 26.4-22.1 42-14.5 15.6 7.6 22.1 26.4 14.5 42l-36.8 75.6c-5.5 11.2-16.7 17.7-28.3 17.7zm0 166.4c-4.6 0-9.3-1-13.7-3.2-15.6-7.6-22.1-26.4-14.5-42l36.8-75.6c7.6-15.6 26.4-22.1 42-14.5 15.6 7.6 22.1 26.4 14.5 42l-36.8 75.6c-5.5 11.2-16.7 17.7-28.3 17.7z" fill="#B3E2FF"/></svg>