<svg class="icon" viewBox="0 0 1024 1024" xmlns="http://www.w3.org/2000/svg" width="48" height="48"><path d="M771.3 289.9c90.4 0 163.6 75.3 163.6 165.1 0 84.3-65.3 154.6-147.6 162.6H247.2c-92.4-13.1-158.1-93.9-158.1-189.2 0-89.4 61.7-164.1 145.1-184.2C261.3 146.3 353.6 71.5 460 71.5c128.5 0 229.4 107.4 229.4 234.4 0 3-.5 5.5-.5 9 24.1-14 52.3-25 82.4-25z" fill="#E5E5E5"/><path d="M349.2 786.3c-4.6 0-9.3-1-13.7-3.2-15.6-7.6-22.1-26.4-14.5-42l36.7-75.4c7.6-15.6 26.4-22.1 42-14.5 15.6 7.6 22.1 26.4 14.5 42l-36.7 75.4c-5.5 11.2-16.6 17.7-28.3 17.7zm0 166.2c-4.6 0-9.3-1-13.7-3.2-15.6-7.6-22.1-26.4-14.5-42l36.7-75.4c7.6-15.6 26.4-22.1 42-14.5 15.6 7.6 22.1 26.4 14.5 42l-36.7 75.4c-5.5 11.2-16.6 17.7-28.3 17.7zm257.4-166.2c-4.6 0-9.3-1-13.7-3.2-15.6-7.6-22.1-26.4-14.5-42l36.7-75.4c7.6-15.6 26.4-22.1 42-14.5s22.1 26.4 14.5 42l-36.7 75.4c-5.4 11.2-16.6 17.7-28.3 17.7zm0 166.2c-4.6 0-9.3-1-13.7-3.2-15.6-7.6-22.1-26.4-14.5-42l36.7-75.4c7.6-15.6 26.4-22.1 42-14.5 15.6 7.6 22.1 26.4 14.5 42l-36.7 75.4c-5.4 11.2-16.6 17.7-28.3 17.7zM481.1 786.3c-4.6 0-9.3-1-13.7-3.2-15.6-7.6-22.1-26.4-14.5-42l36.7-75.4c7.6-15.6 26.4-22.1 42-14.5s22.1 26.4 14.5 42l-36.7 75.4c-5.5 11.2-16.7 17.7-28.3 17.7zm0 166.2c-4.6 0-9.3-1-13.7-3.2-15.6-7.6-22.1-26.4-14.5-42l36.7-75.4c7.6-15.6 26.4-22.1 42-14.5 15.6 7.6 22.1 26.4 14.5 42l-36.7 75.4c-5.5 11.2-16.7 17.7-28.3 17.7zM223.7 786.3c-4.6 0-9.3-1-13.7-3.2-15.6-7.6-22.1-26.4-14.5-42l36.7-75.4c7.6-15.6 26.4-22.1 42-14.5 15.6 7.6 22.1 26.4 14.5 42L252 768.6c-5.5 11.2-16.7 17.7-28.3 17.7zm0 166.2c-4.6 0-9.3-1-13.7-3.2-15.6-7.6-22.1-26.4-14.5-42l36.7-75.4c7.6-15.6 26.4-22.1 42-14.5 15.6 7.6 22.1 26.4 14.5 42L252 934.8c-5.5 11.2-16.7 17.7-28.3 17.7zm514.8-166.2c-4.6 0-9.3-1-13.7-3.2-15.6-7.6-22.1-26.4-14.5-42l36.7-75.4c7.6-15.6 26.4-22.1 42-14.5s22.1 26.4 14.5 42l-36.7 75.4c-5.5 11.2-16.7 17.7-28.3 17.7zm0 166.2c-4.6 0-9.3-1-13.7-3.2-15.6-7.6-22.1-26.4-14.5-42l36.7-75.4c7.6-15.6 26.4-22.1 42-14.5 15.6 7.6 22.1 26.4 14.5 42l-36.7 75.4c-5.5 11.2-16.7 17.7-28.3 17.7z" fill="#B3E2FF"/></svg>