<svg class="icon" viewBox="0 0 1024 1024" xmlns="http://www.w3.org/2000/svg" width="48" height="48"><path d="M281.2 781.7c-4.6 0-9.2-1-13.6-3.1-15.5-7.5-22-25.9-14.4-41.2l36.5-74.2c7.6-15.3 26.3-21.7 41.8-14.2 15.5 7.5 22 25.9 14.4 41.2l-36.5 74.2c-5.5 10.9-16.6 17.3-28.2 17.3zm0 163.3c-4.6 0-9.2-1-13.6-3.1-15.5-7.5-22-25.9-14.4-41.2l36.5-74.2c7.6-15.3 26.3-21.7 41.8-14.2 15.5 7.5 22 25.9 14.4 41.2l-36.5 74.2c-5.5 10.9-16.6 17.3-28.2 17.3zM675 781.7c-4.6 0-9.2-1-13.6-3.1-15.5-7.5-22-25.9-14.4-41.2l36.5-74.2c7.6-15.3 26.3-21.7 41.8-14.2 15.5 7.5 22 25.9 14.4 41.2l-36.5 74.2c-5.5 10.9-16.6 17.3-28.2 17.3zm0 163.3c-4.6 0-9.2-1-13.6-3.1-15.5-7.5-22-25.9-14.4-41.2l36.5-74.2c7.6-15.3 26.3-21.7 41.8-14.2 15.5 7.5 22 25.9 14.4 41.2l-36.5 74.2c-5.5 10.9-16.6 17.3-28.2 17.3z" fill="#B3E2FF"/><path d="M770.1 293.7c90 0 162.9 74 162.9 162.3 0 82.9-65 152-146.9 159.9H248.4c-92-12.8-157.4-92.3-157.4-186 0-87.8 61.5-161.4 144.4-181.1C262.4 152.5 354.3 79 460.3 79c127.9 0 228.4 105.6 228.4 230.4 0 3-.5 5.4-.5 8.9 24-13.8 51.9-24.6 81.9-24.6z" fill="#E5E5E5"/><path d="M458.9 642.3h81.3v290.1h-81.3z" fill="#B3E2FF"/></svg>