<svg class="icon" viewBox="0 0 1024 1024" xmlns="http://www.w3.org/2000/svg" width="48" height="48"><path d="M822.5 303.2c-97.3 0-176.1-78.9-176.1-176.1 0-18 2.7-35.3 7.7-51.7-53.5 31.8-89.3 90.2-89.3 156.9v1.8c49.3 30.3 84.9 81.6 94.8 141.6 12.6-3.7 25.1-5.6 37.3-5.6 38.2 0 73.1 14.4 99.8 38 65.1-18.2 115.6-71.7 129.4-138.6-29.2 21.2-64.9 33.7-103.6 33.7z" fill="#FFCD00"/><path d="M456.7 801.2c-4.1 0-8.2-.9-12.2-2.8-13.8-6.7-19.6-23.4-12.9-37.2l32.5-66.9c6.7-13.8 23.4-19.6 37.2-12.9 13.8 6.7 19.6 23.4 12.9 37.2l-32.5 66.9c-4.7 10-14.6 15.7-25 15.7zm0 147.4c-4.1 0-8.2-.9-12.2-2.8-13.8-6.7-19.6-23.4-12.9-37.2l32.5-66.9c6.7-13.8 23.4-19.6 37.2-12.9 13.8 6.7 19.6 23.4 12.9 37.2l-32.5 66.9c-4.7 9.9-14.6 15.7-25 15.7z" fill="#B3E2FF"/><path d="M702.9 405.1c80.1 0 145.1 57 145.1 125 0 63.9-57.9 117.1-130.9 123.1h-479C156.3 643.4 98 582.2 98 510c0-67.7 54.8-124.3 128.6-139.5 24-74.1 105.9-130.7 200.3-130.7 114 0 203.4 81.3 203.4 177.5 0 2.3-.4 4.2-.4 6.8 21.4-10.7 46.3-19 73-19z" fill="#E5E5E5"/></svg>