<svg class="icon" viewBox="0 0 1024 1024" xmlns="http://www.w3.org/2000/svg" width="48" height="48"><path d="M773.6 289.2c91.2 0 165.1 76 165.1 166.6 0 85.1-65.8 156-148.9 164.1h-545C151.6 606.7 85.3 525.2 85.3 429c0-90.2 62.3-165.6 146.4-185.9C259 144.3 352.2 68.9 459.6 68.9 589.2 68.9 691 177.3 691 305.4c0 3-.5 5.6-.5 9.1 24.3-14.2 52.7-25.3 83.1-25.3z" fill="#E5E5E5"/><path d="M635.4 776.8h-57.2l40.5-40.5c10.7-10.7 10.7-28.1 0-38.8-10.7-10.7-28.1-10.7-38.8 0L539.4 738v-57.2c0-15.2-12.3-27.4-27.4-27.4s-27.4 12.3-27.4 27.4V738l-40.5-40.5c-10.7-10.7-28.1-10.7-38.8 0-10.7 10.7-10.7 28.1 0 38.8l40.5 40.5h-57.2c-15.2 0-27.4 12.3-27.4 27.4 0 15.2 12.3 27.4 27.4 27.4h57.2l-40.5 40.5c-10.7 10.7-10.7 28.1 0 38.8 5.4 5.4 12.4 8 19.4 8 7 0 14-2.7 19.4-8l40.5-40.5v57.2c0 15.2 12.3 27.4 27.4 27.4s27.4-12.3 27.4-27.4v-57.2l40.5 40.5c5.4 5.4 12.4 8 19.4 8 7 0 14-2.7 19.4-8 10.7-10.7 10.7-28.1 0-38.8l-40.5-40.5h57.2c15.2 0 27.4-12.3 27.4-27.4.1-15.1-12.2-27.4-27.4-27.4z" fill="#B3E2FF"/></svg>