<svg class="icon" viewBox="0 0 1024 1024" xmlns="http://www.w3.org/2000/svg" width="48" height="48"><path d="M770.3 296.9c90 0 163 75 163 164.5 0 84-65 154-147 162h-538c-92-13-157.5-93.5-157.5-188.5 0-89 61.5-163.5 144.5-183.5 27-97.5 119-172 225-172 128 0 228.5 107 228.5 233.5 0 3-.5 5.5-.5 9 24-14 52-25 82-25z" fill="#E5E5E5"/><path d="M452.5 783.5h-51.7l36.6-36.6c9.7-9.7 9.7-25.4 0-35.1-9.7-9.7-25.4-9.7-35.1 0l-36.6 36.6v-51.7c0-13.7-11.1-24.8-24.8-24.8-13.7 0-24.8 11.1-24.8 24.8v51.7l-36.6-36.6c-9.7-9.7-25.4-9.7-35.1 0-9.7 9.7-9.7 25.4 0 35.1l36.6 36.6h-51.7c-13.7 0-24.8 11.1-24.8 24.8 0 13.7 11.1 24.8 24.8 24.8H281l-36.6 36.6c-9.7 9.7-9.7 25.4 0 35.1 4.8 4.8 11.2 7.3 17.5 7.3 6.3 0 12.7-2.4 17.5-7.3l36.6-36.6v51.7c0 13.7 11.1 24.8 24.8 24.8 13.7 0 24.8-11.1 24.8-24.8v-51.7l36.6 36.6c4.8 4.8 11.2 7.3 17.5 7.3s12.7-2.4 17.5-7.3c9.7-9.7 9.7-25.4 0-35.1L400.8 833h51.7c13.7 0 24.8-11.1 24.8-24.8-.1-13.6-11.1-24.7-24.8-24.7zm350 0h-51.7l36.6-36.6c9.7-9.7 9.7-25.4 0-35.1-9.7-9.7-25.4-9.7-35.1 0l-36.6 36.6v-51.7c0-13.7-11.1-24.8-24.8-24.8-13.7 0-24.8 11.1-24.8 24.8v51.7l-36.6-36.6c-9.7-9.7-25.4-9.7-35.1 0-9.7 9.7-9.7 25.4 0 35.1l36.6 36.6h-51.7c-13.7 0-24.8 11.1-24.8 24.8 0 13.7 11.1 24.8 24.8 24.8H631l-36.6 36.6c-9.7 9.7-9.7 25.4 0 35.1 4.8 4.8 11.2 7.3 17.5 7.3 6.3 0 12.7-2.4 17.5-7.3l36.6-36.6v51.7c0 13.7 11.1 24.8 24.8 24.8 13.7 0 24.8-11.1 24.8-24.8v-51.7l36.6 36.6c4.8 4.8 11.2 7.3 17.5 7.3 6.3 0 12.7-2.4 17.5-7.3 9.7-9.7 9.7-25.4 0-35.1L750.8 833h51.7c13.7 0 24.8-11.1 24.8-24.8 0-13.6-11.1-24.7-24.8-24.7z" fill="#B3E2FF"/></svg>