<svg class="icon" viewBox="0 0 1024 1024" xmlns="http://www.w3.org/2000/svg" width="48" height="48"><path d="M761.5 283.8c86.9 0 157.5 72.5 157.5 158.9 0 81.2-62.8 148.8-142 156.5H257.2C168.3 586.6 105 508.9 105 417.1c0-86 59.4-158 139.6-177.3 26.1-94.2 115-166.2 217.4-166.2 123.7 0 220.8 103.4 220.8 225.6 0 2.9-.5 5.3-.5 8.7 23.2-13.5 50.2-24.1 79.2-24.1z" fill="#E5E5E5"/><path d="M583.4 827.2h-39.5l28-28c7.4-7.4 7.4-19.4 0-26.8-7.4-7.4-19.4-7.4-26.8 0l-28 28v-39.5c0-10.5-8.5-19-19-19s-19 8.5-19 19v39.5l-28-28c-7.4-7.4-19.4-7.4-26.8 0-7.4 7.4-7.4 19.4 0 26.8l28 28h-39.5c-10.5 0-19 8.5-19 19s8.5 19 19 19h39.5l-28 28c-7.4 7.4-7.4 19.4 0 26.8 3.7 3.7 8.6 5.6 13.4 5.6s9.7-1.9 13.4-5.6l28-28v39.5c0 10.5 8.5 19 19 19s19-8.5 19-19V892l28 28c3.7 3.7 8.6 5.6 13.4 5.6s9.7-1.9 13.4-5.6c7.4-7.4 7.4-19.4 0-26.8l-28-28h39.5c10.5 0 19-8.5 19-19s-8.5-19-19-19zm-171.2-95.9c0-10.5-8.5-19-19-19h-39.5l28-28c7.4-7.4 7.4-19.4 0-26.8-7.4-7.4-19.4-7.4-26.8 0l-28 28V646c0-10.5-8.5-19-19-19s-19 8.5-19 19v39.5l-28-28c-7.4-7.4-19.4-7.4-26.8 0-7.4 7.4-7.4 19.4 0 26.8l28 28h-39.5c-10.5 0-19 8.5-19 19s8.5 19 19 19h39.5l-28 28c-7.4 7.4-7.4 19.4 0 26.8 3.7 3.7 8.6 5.6 13.4 5.6s9.7-1.9 13.4-5.6l28-28v39.5c0 10.5 8.5 19 19 19s19-8.5 19-19V777l28 28c3.7 3.7 8.6 5.6 13.4 5.6s9.7-1.9 13.4-5.6c7.4-7.4 7.4-19.4 0-26.8l-28-28h39.5c10.5 0 19-8.4 19-18.9zm360.9-19h-39.5l28-28c7.4-7.4 7.4-19.4 0-26.8-7.4-7.4-19.4-7.4-26.8 0l-28 28V646c0-10.5-8.5-19-19-19s-19 8.5-19 19v39.5l-28-28c-7.4-7.4-19.4-7.4-26.8 0-7.4 7.4-7.4 19.4 0 26.8l28 28h-39.5c-10.5 0-19 8.5-19 19s8.5 19 19 19H642l-28 28c-7.4 7.4-7.4 19.4 0 26.8 3.7 3.7 8.6 5.6 13.4 5.6s9.7-1.9 13.4-5.6l28-28v39.5c0 10.5 8.5 19 19 19s19-8.5 19-19V777l28 28c3.7 3.7 8.6 5.6 13.4 5.6 4.8 0 9.7-1.9 13.4-5.6 7.4-7.4 7.4-19.4 0-26.8l-28-28h39.5c10.5 0 19-8.5 19-19 0-10.4-8.5-18.9-19-18.9z" fill="#B3E2FF"/></svg>