<svg class="icon" viewBox="0 0 1024 1024" xmlns="http://www.w3.org/2000/svg" width="48" height="48"><path d="M755.2 274.4c84.8 0 153.5 70.6 153.5 154.9 0 79.1-61.2 145-138.5 152.6H263.6c-86.7-12.2-148.3-88.1-148.3-177.5 0-83.8 57.9-154 136.1-172.8 25.4-91.8 112.1-162 211.9-162 120.6 0 215.2 100.8 215.2 219.9 0 2.8-.5 5.2-.5 8.5 22.6-13.2 49-23.6 77.2-23.6z" fill="#E5E5E5"/><path d="M395.6 844.9h-35.2l24.9-24.9c6.6-6.6 6.6-17.3 0-23.8-6.6-6.6-17.3-6.6-23.8 0L336.6 821v-35.2c0-9.3-7.5-16.9-16.9-16.9s-16.9 7.5-16.9 16.9V821L278 796.2c-6.6-6.6-17.3-6.6-23.8 0-6.6 6.6-6.6 17.3 0 23.8l24.9 24.9h-35.2c-9.3 0-16.9 7.5-16.9 16.9s7.5 16.9 16.9 16.9H279l-24.9 24.9c-6.6 6.6-6.6 17.3 0 23.8 3.3 3.3 7.6 4.9 11.9 4.9s8.6-1.6 11.9-4.9l24.9-24.9v35.2c0 9.3 7.5 16.9 16.9 16.9s16.9-7.5 16.9-16.9v-35.2l24.9 24.9c3.3 3.3 7.6 4.9 11.9 4.9s8.6-1.6 11.9-4.9c6.6-6.6 6.6-17.3 0-23.8l-24.9-24.9h35.2c9.3 0 16.9-7.5 16.9-16.9s-7.6-16.9-16.9-16.9zm91.1-175.8h-35.2l24.9-24.9c6.6-6.6 6.6-17.3 0-23.8-6.6-6.6-17.3-6.6-23.8 0l-24.9 24.9v-35.2c0-9.3-7.5-16.9-16.9-16.9s-16.9 7.5-16.9 16.9v35.2L369 620.4c-6.6-6.6-17.3-6.6-23.8 0-6.6 6.6-6.6 17.3 0 23.8l24.9 24.9H335c-9.3 0-16.9 7.5-16.9 16.9s7.5 16.9 16.9 16.9h35.2l-24.9 24.9c-6.6 6.6-6.6 17.3 0 23.8 3.3 3.3 7.6 4.9 11.9 4.9s8.6-1.6 11.9-4.9l24.9-24.9v35.2c0 9.3 7.5 16.9 16.9 16.9s16.9-7.5 16.9-16.9v-35.2l24.9 24.9c3.3 3.3 7.6 4.9 11.9 4.9s8.6-1.6 11.9-4.9c6.6-6.6 6.6-17.3 0-23.8l-24.9-24.9h35.2c9.3 0 16.9-7.5 16.9-16.9s-7.6-16.9-17-16.9zm141.7 175.8h-35.2l24.9-24.9c6.6-6.6 6.6-17.3 0-23.8-6.6-6.6-17.3-6.6-23.8 0L569.4 821v-35.2c0-9.3-7.5-16.9-16.9-16.9s-16.9 7.5-16.9 16.9V821l-24.9-24.9c-6.6-6.6-17.3-6.6-23.8 0-6.6 6.6-6.6 17.3 0 23.8l24.9 24.9h-35.2c-9.3 0-16.9 7.5-16.9 16.9s7.5 16.9 16.9 16.9h35.2L487 903.4c-6.6 6.6-6.6 17.3 0 23.8 3.3 3.3 7.6 4.9 11.9 4.9s8.6-1.6 11.9-4.9l24.9-24.9v35.2c0 9.3 7.5 16.9 16.9 16.9s16.9-7.5 16.9-16.9v-35.2l24.9 24.9c3.3 3.3 7.6 4.9 11.9 4.9 4.3 0 8.6-1.6 11.9-4.9 6.6-6.6 6.6-17.3 0-23.8l-24.9-24.9h35.2c9.3 0 16.9-7.5 16.9-16.9s-7.7-16.7-17-16.7zm91.2-175.8h-35.2l24.9-24.9c6.6-6.6 6.6-17.3 0-23.8-6.6-6.6-17.3-6.6-23.8 0l-24.9 24.9v-35.2c0-9.3-7.5-16.9-16.9-16.9s-16.9 7.5-16.9 16.9v35.2L602 620.4c-6.6-6.6-17.3-6.6-23.8 0-6.6 6.6-6.6 17.3 0 23.8l24.9 24.9h-35.2c-9.3 0-16.9 7.5-16.9 16.9s7.5 16.9 16.9 16.9H603l-24.9 24.9c-6.6 6.6-6.6 17.3 0 23.8 3.3 3.3 7.6 4.9 11.9 4.9 4.3 0 8.6-1.6 11.9-4.9l24.9-24.9v35.2c0 9.3 7.5 16.9 16.9 16.9s16.9-7.5 16.9-16.9v-35.2l24.9 24.9c3.3 3.3 7.6 4.9 11.9 4.9 4.3 0 8.6-1.6 11.9-4.9 6.6-6.6 6.6-17.3 0-23.8l-24.9-24.9h35.2c9.3 0 16.9-7.5 16.9-16.9s-7.6-16.9-16.9-16.9z" fill="#B3E2FF"/></svg>