<svg class="icon" viewBox="0 0 1024 1024" xmlns="http://www.w3.org/2000/svg" width="48" height="48"><path d="M770.7 290.4c90.2 0 163.3 75.1 163.3 164.8 0 84.1-65.1 154.3-147.3 162.3H247.8C155.6 604.4 90 523.8 90 428.6c0-89.2 61.6-163.8 144.8-183.8 27-97.7 119.2-172.3 225.4-172.3 128.2 0 228.9 107.2 228.9 233.9 0 3-.5 5.5-.5 9 24-14 52.1-25 82.1-25z" fill="#E5E5E5"/><path d="M381.1 651c-15.6-7.6-34.3-1.1-41.9 14.5l-36.6 75.3c-7.6 15.6-1.1 34.3 14.5 41.9 4.4 2.1 9.1 3.2 13.7 3.2 11.6 0 22.8-6.5 28.2-17.6l36.6-75.3c7.6-15.7 1.1-34.5-14.5-42zm0 165.8c-15.6-7.6-34.3-1.1-41.9 14.5l-36.6 75.3c-7.6 15.6-1.1 34.3 14.5 41.9 4.4 2.1 9.1 3.2 13.7 3.2 11.6 0 22.8-6.5 28.2-17.6l36.6-75.3c7.6-15.7 1.1-34.5-14.5-42zm360.6-44.2h-56.6l40-40c10.6-10.6 10.6-27.8 0-38.4-10.6-10.6-27.8-10.6-38.4 0l-40 40v-56.6c0-15-12.1-27.1-27.1-27.1s-27.1 12.1-27.1 27.1v56.6l-40-40c-10.6-10.6-27.8-10.6-38.4 0-10.6 10.6-10.6 27.8 0 38.4l40 40h-56.6c-15 0-27.1 12.1-27.1 27.1s12.1 27.1 27.1 27.1h56.6l-40 40c-10.6 10.6-10.6 27.8 0 38.4 5.3 5.3 12.2 7.9 19.2 7.9s13.9-2.6 19.2-7.9l40-40v56.6c0 15 12.1 27.1 27.1 27.1s27.1-12.1 27.1-27.1v-56.6l40 40c5.3 5.3 12.2 7.9 19.2 7.9 6.9 0 13.9-2.6 19.2-7.9 10.6-10.6 10.6-27.8 0-38.4l-40-40h56.6c15 0 27.1-12.1 27.1-27.1s-12.1-27.1-27.1-27.1z" fill="#B3E2FF"/></svg>