<svg class="icon" viewBox="0 0 1024 1024" xmlns="http://www.w3.org/2000/svg" width="48" height="48"><path d="M909.9 287.2H873c-15.3 0-27.9 12.2-27.9 27.9S857.7 343 873 343h36.9c15.3 0 27.9-12.2 27.9-27.9s-12.6-27.9-27.9-27.9zM575.5 164.6l-26.3-25.9c-10.6-10.6-28.7-10.6-39.3 0-10.6 10.6-10.6 28.3 0 38.9l26.3 26.3c10.6 10.6 28.7 10.6 39.3 0 10.6-10.6 10.6-28.3 0-39.3zm289.2-25.5c-10.6-10.6-28.7-10.6-39.3 0L799.1 165c-10.6 10.6-10.6 28.3 0 39.3 10.6 10.2 28.3 10.2 39.3-.4l26.3-25.9c10.6-11.1 10.6-28.3 0-38.9zm-177.6 18.8c15.3 0 27.9-12.2 27.9-27.9V93.1c0-15.3-12.6-27.9-27.9-27.9-15.3 0-27.9 12.2-27.9 27.9V130c0 15.7 12.6 27.9 27.9 27.9zm-4.1 25.2c-50.2 0-94 29.3-114.2 71.9 45.5 28.2 79.9 74.1 93.6 128 20-10.3 83.8-16.1 118.6 7.1 23.2-23.2 29.2-41.8 29.2-79.7.1-70.5-57-127.3-127.2-127.3z" fill="#FFCD00"/><path d="M573 813.5h-46.6l33-33c8.7-8.7 8.7-22.9 0-31.6-8.7-8.7-22.9-8.7-31.6 0l-33 33v-46.6c0-12.3-10-22.3-22.3-22.3s-22.3 10-22.3 22.3v46.6l-33-33c-8.7-8.7-22.9-8.7-31.6 0-8.7 8.7-8.7 22.9 0 31.6l33 33H372c-12.3 0-22.3 10-22.3 22.3s10 22.3 22.3 22.3h46.6l-33 33c-8.7 8.7-8.7 22.9 0 31.6 4.4 4.4 10.1 6.5 15.8 6.5s11.4-2.2 15.8-6.5l33-33v46.6c0 12.3 10 22.3 22.3 22.3s22.3-10 22.3-22.3v-46.6l33 33c4.4 4.4 10.1 6.5 15.8 6.5 5.7 0 11.4-2.2 15.8-6.5 8.7-8.7 8.7-22.9 0-31.6l-33-33H573c12.3 0 22.3-10 22.3-22.3s-10-22.3-22.3-22.3z" fill="#B3E2FF"/><path d="M716.8 427.3c83.5 0 151.3 59.4 151.3 130.3 0 66.6-60.3 122-136.4 128.4H232.4C147 675.7 86.2 612 86.2 536.7c0-70.5 57.1-129.6 134.1-145.4C245.4 314 330.8 255 429.2 255c118.8 0 212.1 84.8 212.1 185 0 2.4-.5 4.4-.5 7.1 22.2-11 48.2-19.8 76-19.8z" fill="#E5E5E5"/></svg>