<svg class="icon" viewBox="0 0 1024 1024" xmlns="http://www.w3.org/2000/svg" width="48" height="48"><path d="M835.6 312C734.2 312 652 229.8 652 128.4c0-18.7 2.8-36.8 8-53.8-55.7 33.2-93.1 94-93.1 163.5v1.9c51.4 31.6 88.5 85 98.8 147.6 13.1-3.9 26.1-5.9 38.9-5.9 39.8 0 76.2 15 104 39.6 67.9-19 120.4-74.8 134.9-144.5-30.3 22.1-67.6 35.2-107.9 35.2z" fill="#FFCD00"/><path d="M567.2 804.2h-46.6l33-33c8.7-8.7 8.7-22.9 0-31.6-8.7-8.7-22.9-8.7-31.6 0l-33 33V726c0-12.3-10-22.3-22.3-22.3s-22.3 10-22.3 22.3v46.6l-33-33c-8.7-8.7-22.9-8.7-31.6 0-8.7 8.7-8.7 22.9 0 31.6l33 33h-46.6c-12.3 0-22.3 10-22.3 22.3s10 22.3 22.3 22.3h46.6l-33 33c-8.7 8.7-8.7 22.9 0 31.6 4.4 4.4 10.1 6.5 15.8 6.5s11.4-2.2 15.8-6.5l33-33V927c0 12.3 10 22.3 22.3 22.3s22.3-10 22.3-22.3v-46.6l33 33c4.4 4.4 10.1 6.5 15.8 6.5 5.7 0 11.4-2.2 15.8-6.5 8.7-8.7 8.7-22.9 0-31.6l-33-33h46.6c12.3 0 22.3-10 22.3-22.3s-10-22.3-22.3-22.3z" fill="#B3E2FF"/><path d="M711 418.1c83.5 0 151.2 59.4 151.2 130.3 0 66.5-60.3 122-136.4 128.3H226.7c-85.4-10.3-146.1-74.1-146.1-149.3 0-70.5 57.1-129.5 134.1-145.4 25.1-77.2 110.4-136.3 208.8-136.3 118.8 0 212 84.8 212 185 0 2.4-.5 4.4-.5 7.1 22.2-11 48.2-19.7 76-19.7z" fill="#E5E5E5"/></svg>