<svg class="icon" viewBox="0 0 1024 1024" xmlns="http://www.w3.org/2000/svg" width="48" height="48"><path d="M171.8 554.6h-57.2c-14.5 0-26.3-11.8-26.3-26.3s11.8-26.3 26.3-26.3h57.2c14.5 0 26.3 11.8 26.3 26.3 0 14.6-11.8 26.3-26.3 26.3zm400.9 0-313.1-.6c-14.5 0-26.3-11.8-26.3-26.4 0-14.5 11.8-26.3 26.3-26.3h.1l313 .6c34.7 0 62.9-36.2 62.9-80.6 0-30.6-13.4-58.2-35-72.1-12.2-7.9-15.7-24.2-7.9-36.4 7.9-12.2 24.2-15.7 36.4-7.9 36.5 23.5 59.1 68.1 59.1 116.3.1 73.7-51.7 133.4-115.5 133.4z" fill="#FFCD00"/><path d="M453.5 403.1H114.6c-14.5 0-26.3-11.8-26.3-26.3s11.8-26.3 26.3-26.3h338.9c21.8 0 40.3-24.5 40.3-53.4s-18.4-53.4-40.3-53.4c-14.5 0-26.3-11.8-26.3-26.3s11.8-26.3 26.3-26.3c51.2 0 92.9 47.6 92.9 106s-41.7 106-92.9 106zm294.1-175.7a36.2 36.2 0 1 0 72.4 0 36.2 36.2 0 1 0-72.4 0zm0 188.5a36.2 36.2 0 1 0 72.4 0 36.2 36.2 0 1 0-72.4 0zm0 188.5a36.2 36.2 0 1 0 72.4 0 36.2 36.2 0 1 0-72.4 0zm0 188.5a36.2 36.2 0 1 0 72.4 0 36.2 36.2 0 1 0-72.4 0zm115.8-466.5a36.2 36.2 0 1 0 72.4 0 36.2 36.2 0 1 0-72.4 0zm0 188.5a36.2 36.2 0 1 0 72.4 0 36.2 36.2 0 1 0-72.4 0zm0 188.6a36.2 36.2 0 1 0 72.4 0 36.2 36.2 0 1 0-72.4 0zM552.6 833h-438c-14.5 0-26.3-11.8-26.3-26.3s11.8-26.3 26.3-26.3h438c21.8 0 40.3-24.5 40.3-53.4 0-18.7-7.3-35.7-19.6-45.6-11.3-9.1-13.1-25.7-3.9-37 9.1-11.3 25.7-13.1 37-3.9 24.5 19.8 39.1 52.2 39.1 86.6 0 58.3-41.6 105.9-92.9 105.9z" fill="#FFCD00"/><path d="M475.1 696.1H114.6c-14.5 0-26.3-11.8-26.3-26.3s11.8-26.3 26.3-26.3h360.5c14.5 0 26.3 11.8 26.3 26.3 0 14.6-11.8 26.3-26.3 26.3z" fill="#FFCD00"/></svg>