<svg class="icon" viewBox="0 0 1024 1024" xmlns="http://www.w3.org/2000/svg" width="48" height="48"><path d="M124.7 801.2h774.6V877H124.7zm350.1-311a45.3 45.3 0 1 0 90.6 0 45.3 45.3 0 1 0-90.6 0zm0-189.6a45.3 45.3 0 1 0 90.6 0 45.3 45.3 0 1 0-90.6 0zm0 383.8a45.3 45.3 0 1 0 90.6 0 45.3 45.3 0 1 0-90.6 0zm178.8-302.5a45.3 45.3 0 1 0 90.6 0 45.3 45.3 0 1 0-90.6 0zm0-189.6a45.3 45.3 0 1 0 90.6 0 45.3 45.3 0 1 0-90.6 0zm0 383.8a45.3 45.3 0 1 0 90.6 0 45.3 45.3 0 1 0-90.6 0zM279.8 381.9a45.3 45.3 0 1 0 90.6 0 45.3 45.3 0 1 0-90.6 0zm0-189.6a45.3 45.3 0 1 0 90.6 0 45.3 45.3 0 1 0-90.6 0zm0 383.8a45.3 45.3 0 1 0 90.6 0 45.3 45.3 0 1 0-90.6 0z" fill="#FFCD00"/></svg>