<svg class="icon" viewBox="0 0 1024 1024" xmlns="http://www.w3.org/2000/svg" width="48" height="48"><path d="M762.7 538.8H139.9c-16.5 0-29.9-13.4-29.9-29.9s13.4-29.9 29.9-29.9h622.7c50.4 0 91.5-41 91.5-91.5 0-33.7-18.5-64.6-48.2-80.6-14.5-7.8-20-25.9-12.1-40.5 7.8-14.5 25.9-20 40.5-12.1 49.1 26.4 79.7 77.5 79.7 133.3-.1 83.3-67.9 151.2-151.3 151.2z" fill="#FFCD00"/><path d="M600.6 390.6H139.9c-16.5 0-29.9-13.4-29.9-29.9s13.4-29.9 29.9-29.9h460.7c33.4 0 60.6-27.2 60.6-60.6 0-33.4-27.2-60.6-60.6-60.6-16.5 0-29.9-13.4-29.9-29.9s13.4-29.9 29.9-29.9c66.4 0 120.4 54 120.4 120.4s-54 120.4-120.4 120.4z" fill="#FFCD00"/><path d="M412.2 226.8a37.3 37.3 0 1 0 74.6 0 37.3 37.3 0 1 0-74.6 0zm-146.2 0a37.3 37.3 0 1 0 74.6 0 37.3 37.3 0 1 0-74.6 0zm-146.1 0a37.3 37.3 0 1 0 74.6 0 37.3 37.3 0 1 0-74.6 0zm621.5 647.4c-16.5 0-29.9-13.4-29.9-29.9s13.4-29.9 29.9-29.9c33.4 0 60.6-27.2 60.6-60.6 0-33.4-27.2-60.6-60.6-60.6H139.9c-16.5 0-29.9-13.4-29.9-29.9s13.4-29.9 29.9-29.9h601.4c66.4 0 120.4 54 120.4 120.4s-54 120.4-120.3 120.4z" fill="#FFCD00"/><path d="M553 797.2a37.3 37.3 0 1 0 74.6 0 37.3 37.3 0 1 0-74.6 0zm-146.2 0a37.3 37.3 0 1 0 74.6 0 37.3 37.3 0 1 0-74.6 0zm-146.2 0a37.3 37.3 0 1 0 74.6 0 37.3 37.3 0 1 0-74.6 0zm-145.8 0a37.3 37.3 0 1 0 74.6 0 37.3 37.3 0 1 0-74.6 0z" fill="#FFCD00"/></svg>