<svg class="icon" viewBox="0 0 1159 1024" xmlns="http://www.w3.org/2000/svg" width="54.328" height="48"><path d="M168.059 882.77a26.804 26.804 0 0 1-26.804-26.803 26.804 26.804 0 0 1 26.804-26.804h786.249a26.804 26.804 0 0 1 26.804 26.804 26.804 26.804 0 0 1-26.804 26.804zm0-89.346a26.804 26.804 0 0 1-26.804-26.804 26.804 26.804 0 0 1 26.804-26.804h786.249a26.804 26.804 0 0 1 26.804 26.804 26.804 26.804 0 0 1-26.804 26.804zm603.392-80.412H297.236a155.606 155.606 0 0 1-106.358-41.85 155.463 155.463 0 0 1-49.266-103.123 155.463 155.463 0 0 1 34.256-109.003 155.338 155.338 0 0 1 91.026-55.02q-.554-8.434-.554-16.957a243.666 243.666 0 0 1 72.3-173.85 245.703 245.703 0 0 1 174.546-71.978 245.97 245.97 0 0 1 145.957 47.586 244.291 244.291 0 0 1 86.523 115.453 204.282 204.282 0 0 1 29.913-2.198 204.192 204.192 0 0 1 145.295 60.202 204.121 204.121 0 0 1 60.22 145.26 204.192 204.192 0 0 1-60.202 145.312 204.121 204.121 0 0 1-145.277 60.184h-4.2zM376.54 251.145a190.45 190.45 0 0 0-56.574 135.914 193.4 193.4 0 0 0 3.341 35.738l6.004 31.736H297.04a101.855 101.855 0 0 0-72.37 30.056 101.855 101.855 0 0 0-29.913 72.46 102.516 102.516 0 0 0 102.39 102.266h478.45a152.032 152.032 0 0 0 151.89-151.889 152.05 152.05 0 0 0-151.89-151.889 151.889 151.889 0 0 0-41.241 5.647l-26.804 7.505-6.558-26.983a192.738 192.738 0 0 0-68.03-105.606 194.775 194.775 0 0 0-119.85-41.403 192.524 192.524 0 0 0-136.592 56.377z" fill="#E1E1E1"/></svg>