<svg class="icon" viewBox="0 0 1024 1024" xmlns="http://www.w3.org/2000/svg" width="48" height="48"><path d="M309.355 384c93.76 0 150.762 82.197 174.528 126.208C424.085 630.293 338.133 640 312.277 640c-52.885 0-141.61-16.81-141.61-129.344 0-110.208 86.89-126.656 138.688-126.656m0-64c-125.014 0-202.688 73.045-202.688 190.656C106.667 629.909 185.45 704 312.277 704c36.907 0 163.222-13.419 238.614-186.09l3.776-8.64-3.968-8.555C531.093 458.304 455.723 320 309.355 320zm181.312 480a32 32 0 1 0 64 0 32 32 0 1 0-64 0z" fill="#E1E1E1"/><path d="M735.979 384c51.797 0 138.688 16.448 138.688 126.656C874.667 623.189 785.94 640 733.056 640c-25.856 0-111.808-9.707-171.627-129.792C585.216 466.198 642.22 384 735.98 384m0-64c-146.37 0-221.74 138.304-241.345 180.715l-3.968 8.554 3.776 8.64C569.835 690.581 696.149 704 733.056 704c126.827 0 205.61-74.09 205.61-193.344C938.667 393.046 860.993 320 735.98 320zm-245.313-96a32 32 0 1 0 64 0 32 32 0 1 0-64 0z" fill="#E1E1E1"/></svg>