<svg class="icon" viewBox="0 0 1146 1024" xmlns="http://www.w3.org/2000/svg" width="53.719" height="48"><path d="M776.718 682.764a164.33 164.33 0 0 1-115.585-47.8l-107.092-87.3-113.294 93.278a34.591 34.591 0 0 1-4.828 3.215 163.826 163.826 0 0 1-105.478 38.607 172.35 172.35 0 0 1 0-344.465 164.33 164.33 0 0 1 115.595 47.789l108.005 88.019 108.006-88.902a163.61 163.61 0 0 1 114.671-46.906 172.35 172.35 0 0 1 0 344.465zm-70.045-82.904a109.68 109.68 0 0 0 156.955-17.008 117.198 117.198 0 0 0-16.587-161.598 109.207 109.207 0 0 0-136.044-3.45c-.925 1.15-112.145 93.071-112.145 93.071s106.393 87.321 107.82 88.985zM330.44 395.742a114.907 114.907 0 0 0 0 229.579 109.7 109.7 0 0 0 73.773-28.758c2.054-1.838 105.017-85.718 105.017-85.718s-107.317-87.978-108.694-89.59a109.217 109.217 0 0 0-70.096-25.513zM229.789 201.628a37.241 37.241 0 1 0 10.907-26.334 37.251 37.251 0 0 0-10.907 26.334zm571.044 0a37.241 37.241 0 1 0 37.303-37.241 37.241 37.241 0 0 0-37.241 37.241zM230.035 822.352a37.251 37.251 0 1 0 37.252-37.242 37.251 37.251 0 0 0-37.252 37.242zm608.101-37.242a37.251 37.251 0 1 1-37.241 37.242 37.241 37.241 0 0 1 37.241-37.242zM517.078 201.628a37.241 37.241 0 1 0 37.24-37.241 37.241 37.241 0 0 0-37.24 37.241zm37.24 583.482a37.251 37.251 0 1 1-37.24 37.242 37.241 37.241 0 0 1 37.24-37.242z" fill="#E1E1E1"/></svg>