<svg class="icon" viewBox="0 0 1024 1024" xmlns="http://www.w3.org/2000/svg" width="48" height="48"><path d="M309.57 662.398c-122.484 0-218.39-68.414-218.39-155.671s95.906-155.743 218.39-155.743 218.39 68.414 218.39 155.743-95.905 155.671-218.39 155.671zm0-254.882c-87.75 0-161.718 45.421-161.718 99.21s74.18 99.211 161.718 99.211 161.72-45.492 161.72-99.21-73.97-99.211-161.72-99.211z" fill="#E1E1E1"/><path d="M714.43 662.398c-122.485 0-218.39-68.414-218.39-155.671s95.905-155.743 218.39-155.743 218.39 68.414 218.39 155.743-95.906 155.671-218.39 155.671zm0-254.882c-87.75 0-161.72 45.421-161.72 99.21s74.11 99.211 161.72 99.211 161.718-45.492 161.718-99.21-73.968-99.211-161.718-99.211zM119.445 249.945a39.867 39.867 0 1 0 79.735 0 39.867 39.867 0 1 0-79.735 0zm705.375 0a39.867 39.867 0 1 0 79.735 0 39.867 39.867 0 1 0-79.735 0zM354.57 268.79a39.867 39.867 0 1 0 79.735 0 39.867 39.867 0 1 0-79.735 0zm235.125 0a39.867 39.867 0 1 0 79.735 0 39.867 39.867 0 1 0-79.735 0zm-470.32 505.265a39.867 39.867 0 1 0 79.734 0 39.867 39.867 0 1 0-79.734 0zm705.445 0a39.867 39.867 0 1 0 79.735 0 39.867 39.867 0 1 0-79.735 0zM354.57 755.21a39.867 39.867 0 1 0 79.735 0 39.867 39.867 0 1 0-79.735 0zm235.125 0a39.867 39.867 0 1 0 79.735 0 39.867 39.867 0 1 0-79.735 0z" fill="#E1E1E1"/></svg>