<svg class="icon" viewBox="0 0 1053 1024" xmlns="http://www.w3.org/2000/svg" width="49.359" height="48"><path d="M554.429 194.429c-23.143 0-43.715 5.142-64.286 14.142C479.857 140.43 422 87.714 350 87.714c-78.429 0-141.429 63-141.429 141.429 0 7.714 1.286 15.428 2.572 23.143h-2.572C143 252.286 89 306.286 89 371.857c0 65.572 54 127.286 119.571 127.286H554.43c83.571 0 151.714-68.143 151.714-151.714s-68.143-153-151.714-153z" fill="#E1E1E1"/><path d="M209.857 524.857H554.43c97.714 0 177.428-79.714 177.428-177.428C731.857 249.714 652.143 170 554.43 170c-15.429 0-30.858 2.571-45 6.429C486.286 108.286 423.286 62 351.286 62 260 62 185.429 136.571 184.143 229.143c-66.857 11.571-118.286 72-118.286 142.714 0 82.286 65.572 153 144 153zm0-246.857h2.572c7.714 0 14.142-3.857 19.285-9 5.143-5.143 6.429-12.857 5.143-20.571-1.286-6.429-1.286-12.858-1.286-18 0-64.286 51.429-115.715 115.715-115.715 56.571 0 105.428 42.429 114.428 99 1.286 7.715 6.429 15.429 12.857 19.286 7.715 3.857 15.429 3.857 23.143 1.286a125.767 125.767 0 0 1 52.715-11.572c69.428 0 126 56.572 126 126s-56.572 126-126 126H209.857c-50.143 0-92.571-47.571-92.571-101.571S158.429 278 209.857 278zm582.429 286.714c6.428 0 12.857-2.571 18-7.714 5.143-5.143 11.571-7.714 19.285-7.714 14.143 0 27 11.571 27 27 0 14.143-11.571 27-27 27H215c-14.143 0-25.714 11.571-25.714 25.714s11.571 25.714 25.714 25.714h613.286c42.428 0 77.143-34.714 77.143-78.428 0-42.429-34.715-78.429-77.143-78.429-20.572 0-39.857 7.714-55.286 23.143-10.286 10.286-10.286 25.714 0 36 6.429 5.143 12.857 7.714 19.286 7.714zm118.285 243H293.43c-14.143 0-25.715 11.572-25.715 25.715s11.572 25.714 25.715 25.714h617.14c14.143 0 27 10.286 27 24.428 0 14.143-11.571 27-27 27-7.714 0-14.142-2.571-19.285-7.714-10.286-10.286-25.715-10.286-36 0-10.286 10.286-10.286 25.714 0 36C869.429 953 890 962 910.57 962c42.429 0 77.143-34.714 77.143-78.429 0-42.428-34.714-75.857-77.143-75.857zm-81-77.143c0-14.142-11.571-25.714-25.714-25.714H87.714C73.571 704.857 62 716.43 62 730.571s11.571 25.715 25.714 25.715h716.143c14.143 0 25.714-11.572 25.714-25.715z" fill="#E1E1E1"/></svg>