<svg class="icon" viewBox="0 0 1024 1024" xmlns="http://www.w3.org/2000/svg" width="48" height="48"><path d="M779.979 672.488h-535.87c-43.77 0-85.078-17.138-116.191-48.252-31.201-31.2-48.34-72.51-48.34-116.279 0-43.77 17.139-85.078 48.252-116.28 25.4-25.4 57.568-41.572 92.373-46.581 6.856-68.116 37.002-131.397 86.484-179.912C361.796 111.13 434.745 81.336 512 81.336s150.293 29.795 205.4 83.848c49.483 48.515 79.63 111.62 86.485 179.912 34.717 5.01 66.885 21.181 92.285 46.582 31.113 31.113 48.252 72.422 48.252 116.191s-17.139 85.078-48.252 116.28c-31.201 31.113-72.334 48.34-116.191 48.34zm-535.87-277.91c-62.49 0-113.379 50.8-113.379 113.379 0 62.402 50.801 113.379 113.38 113.379h535.956c62.49 0 113.38-50.8 113.38-113.379 0-62.49-50.801-113.379-113.38-113.379h-25.312l-.527-25.049C751.414 238.836 642.78 132.49 512 132.49S272.674 238.835 269.95 369.44l-.528 25.05h-25.313zm349.629 352.09h-385.84c-9.668 0-17.578-7.91-17.578-17.578s7.91-17.578 17.578-17.578h385.84c9.668 0 17.578 7.91 17.578 17.578s-7.91 17.578-17.578 17.578zm223.242 0H715.906c-9.668 0-17.578-7.91-17.578-17.578s7.91-17.578 17.578-17.578H816.98c9.668 0 17.579 7.91 17.579 17.578s-7.91 17.578-17.579 17.578zM308.973 841.15H207.898c-9.668 0-17.578-7.91-17.578-17.578s7.91-17.578 17.578-17.578h101.075c9.668 0 17.578 7.91 17.578 17.578s-7.91 17.578-17.578 17.578zm508.007 0H431.14c-9.667 0-17.577-7.91-17.577-17.578s7.91-17.578 17.578-17.578h385.84c9.667 0 17.578 7.91 17.578 17.578s-7.91 17.578-17.579 17.578zm0 94.483H570.887c-9.668 0-17.578-7.91-17.578-17.578s7.91-17.578 17.578-17.578H816.98c9.668 0 17.579 7.91 17.579 17.578s-7.91 17.578-17.579 17.578zm-370.898 0H207.898c-9.668 0-17.578-7.91-17.578-17.578s7.91-17.578 17.578-17.578h238.184c9.668 0 17.578 7.91 17.578 17.578s-7.91 17.578-17.578 17.578z" fill="#E1E1E1"/></svg>