<svg class="icon" viewBox="0 0 1024 1024" xmlns="http://www.w3.org/2000/svg" width="48" height="48"><path d="M343.25 765.125c0 45-39.375 84.375-84.375 84.375S174.5 810.125 174.5 765.125c0-33.75 22.5-67.5 56.25-78.75v-483.75c0-16.875 11.25-28.125 28.125-28.125S287 185.75 287 202.625v483.75c33.75 11.25 56.25 45 56.25 78.75z" fill="#E1E1E1"/><path d="M118.25 202.625C118.25 123.875 180.125 62 258.875 62S399.5 123.875 399.5 202.625v427.5c78.75 78.75 73.125 202.5-5.625 275.625S197 978.875 118.25 900.125c-73.125-78.75-73.125-196.875 0-275.625V202.625zm140.625-84.375c-45 0-84.375 39.375-84.375 84.375v450l-11.25 5.625C107 708.875 101.375 798.875 152 855.125S292.625 917 348.875 866.375 410.75 725.75 360.125 669.5l-11.25-11.25-5.625-5.625v-450c0-45-39.375-84.375-84.375-84.375zm281.25 56.25c16.875 0 28.125 11.25 28.125 28.125v56.25C568.25 275.75 557 287 540.125 287S512 275.75 512 258.875v-56.25c0-16.875 11.25-28.125 28.125-28.125zm236.25 101.25c11.25 11.25 11.25 28.125 0 39.375L737 354.5c-11.25 11.25-28.125 11.25-39.375 0s-11.25-28.125 0-39.375L737 275.75c11.25-11.25 28.125-11.25 39.375 0zM512 371.375c0-16.875 11.25-28.125 28.125-28.125 95.625 0 168.75 73.125 168.75 168.75s-73.125 168.75-168.75 168.75C523.25 680.75 512 669.5 512 652.625s11.25-28.125 28.125-28.125c61.875 0 112.5-50.625 112.5-112.5S602 399.5 540.125 399.5C523.25 399.5 512 388.25 512 371.375zM765.125 512c0-16.875 11.25-28.125 28.125-28.125h56.25c16.875 0 28.125 11.25 28.125 28.125s-11.25 28.125-28.125 28.125h-56.25c-16.875 0-28.125-11.25-28.125-28.125zm-67.5 157.5c11.25-11.25 28.125-11.25 39.375 0l39.375 39.375c11.25 11.25 11.25 28.125 0 39.375s-28.125 11.25-39.375 0l-39.375-39.375c-11.25-11.25-11.25-28.125 0-39.375zm-157.5 67.5c16.875 0 28.125 11.25 28.125 28.125v56.25c0 16.875-11.25 28.125-28.125 28.125S512 838.25 512 821.375v-56.25C512 748.25 523.25 737 540.125 737z" fill="#E1E1E1"/></svg>