<svg class="icon" viewBox="0 0 1024 1024" xmlns="http://www.w3.org/2000/svg" width="48" height="48"><path d="m883.88 482.21-58.894-33.986 46.44-12.454a8.595 8.595 0 1 0-4.477-16.628L803.88 436.04l-71.111-41.063 71.111-41.062 63.068 16.897a8.662 8.662 0 0 0 10.552-6.075 8.629 8.629 0 0 0-6.075-10.552l-46.44-12.454 58.894-33.986a8.606 8.606 0 0 0-8.629-14.884l-58.894 33.986 12.454-46.44a8.629 8.629 0 0 0-6.075-10.552 8.629 8.629 0 0 0-10.552 6.075l-16.898 63.067-71.111 41.063v-82.091l46.17-46.17a8.617 8.617 0 0 0-12.184-12.184l-33.986 33.986V205.63a8.662 8.662 0 0 0-8.629-8.629 8.662 8.662 0 0 0-8.617 8.629v68.017l-33.987-33.986a8.617 8.617 0 0 0-12.183 12.184l46.17 46.17v82.125l-71.112-41.108-16.897-63.067a8.595 8.595 0 1 0-16.628 4.477l12.454 46.44-58.894-34.031a8.629 8.629 0 0 0-11.756 3.127 8.629 8.629 0 0 0 3.128 11.757l58.893 33.986-46.44 12.454a8.595 8.595 0 0 0-6.075 10.552 8.662 8.662 0 0 0 10.553 6.075l63.067-16.897 71.112 41.062-71.112 41.063-63.067-16.898a8.629 8.629 0 0 0-10.553 6.075 8.629 8.629 0 0 0 6.075 10.553l46.44 12.453-58.893 33.987a8.595 8.595 0 1 0 8.628 14.883l58.894-33.986-12.454 46.44a8.629 8.629 0 0 0 16.628 4.489l16.897-63.068 71.112-41.062v82.125l-46.17 46.125a8.617 8.617 0 0 0 12.183 12.184l33.987-33.986v68.017a8.64 8.64 0 0 0 17.246 0v-68.017l33.986 33.986a8.572 8.572 0 0 0 12.15 0 8.617 8.617 0 0 0 0-12.184l-46.125-46.17v-82.091l71.111 41.062 16.898 63.068a8.662 8.662 0 0 0 8.314 6.378 8.595 8.595 0 0 0 8.313-10.867l-12.453-46.44 58.893 33.986a8.629 8.629 0 0 0 11.757-3.127 8.617 8.617 0 0 0-3.139-11.734zM411.391 242.248a42.536 42.536 0 0 1 42.536 42.536V635.75h-85.083V284.795a42.559 42.559 0 0 1 42.547-42.547z" fill="#E1E1E1"/><path d="M411.391 625.119c58.736 0 106.358 47.61 106.358 106.357s-47.61 106.358-106.358 106.358-106.357-47.61-106.357-106.358S352.655 625.12 411.39 625.12z" fill="#E1E1E1"/><path d="M411.391 944.574a216.338 216.338 0 0 1-153.619-64.519c-39.487-40.309-60.614-93.15-59.478-148.804 1.564-76.578 49.624-128.981 63.787-142.796-.168-34.695-1.147-248.197.023-388.834l.315-2.531C278.225 132.515 331.01 95.536 411.03 92.971h.079c72.079-1.968 133.526 40.995 149.243 104.074l.326 2.329c4.5 147.071.81 353.092.112 388.744 15.311 13.342 63.709 62.01 63.709 143.347-3.724 119.655-97.324 213.109-213.109 213.109zM284.154 201.106c-1.26 152.595 0 389.655.011 392.04l.022 5.029-3.79 3.33c-.586.517-58.467 52.245-60.042 130.185-1.012 49.68 17.876 96.885 53.179 132.919A194.175 194.175 0 0 0 411.403 922.5c103.78 0 187.706-84.071 191.058-191.385-.022-82.878-58.871-128.655-59.467-129.116l-4.466-3.397.1-5.637c.057-2.306 4.895-231.66.046-391.725-13.635-52.346-65.711-87.75-126.956-86.242-69.705 2.261-113.772 32.029-127.564 86.107z" fill="#E1E1E1"/></svg>