<svg class="icon" viewBox="0 0 1024 1024" xmlns="http://www.w3.org/2000/svg" width="16" height="16"><path d="M171.947 399.36c.426-6.059.853-11.179 1.365-15.36C192.64 228.693 316.502 85.333 512 85.333c195.541 0 319.403 143.36 338.688 298.752.512 4.139.981 9.259 1.365 15.275a25.6 25.6 0 0 1-25.514 27.307h-26.454a34.133 34.133 0 0 1-33.962-30.934 193.28 193.28 0 0 0-1.408-11.562C745.77 263.509 646.784 170.667 512 170.667c-134.827 0-233.813 92.885-252.715 213.504a193.152 193.152 0 0 0-1.408 11.562 34.133 34.133 0 0 1-33.962 30.934H197.46a25.6 25.6 0 0 1-25.514-27.307zm98.005 138.41a349.347 349.347 0 0 0 4.693 17.025C295.552 621.653 333.312 677.973 384 725.333c30.293 28.246 63.232 52.95 95.403 69.334 11.05 5.632 24.064 12.885 32.597 16 8.363-2.987 21.76-10.283 32.427-15.787 32.426-16.64 65.322-41.301 95.573-69.547 50.987-47.616 88.747-103.424 109.61-170.538 1.366-4.48 2.902-10.112 4.609-16.939A34.133 34.133 0 0 1 787.328 512h27.221a25.6 25.6 0 0 1 24.96 31.403c-1.024 4.352-1.962 8.106-2.816 11.264C794.24 710.485 679.51 804.48 597.333 853.333c122.88 5.974 213.334 23.382 213.334 42.667 0 23.552-133.718 42.667-298.667 42.667S213.333 919.552 213.333 896c0-18.645 90.454-36.864 213.334-42.667-82.347-48.725-196.992-142.72-239.36-298.624a322.73 322.73 0 0 1-2.859-11.306A25.6 25.6 0 0 1 209.408 512h27.477a34.133 34.133 0 0 1 33.067 25.77zM512 597.334A170.667 170.667 0 1 1 512 256a170.667 170.667 0 0 1 0 341.333zM512 512a85.333 85.333 0 1 0 0-170.667A85.333 85.333 0 0 0 512 512z" fill="#2258E1"/></svg>