<svg class="icon" viewBox="0 0 1024 1024" xmlns="http://www.w3.org/2000/svg" width="48" height="48"><path d="M463.122 125.442c0-33.995 29.189-61.539 65.182-61.539 36 0 65.173 27.544 65.173 61.539v342.324c0 33.985-29.173 61.533-65.173 61.533-35.994 0-65.182-27.548-65.182-61.533V125.442zm48.883 834.654c-224.977 0-407.36-172.216-407.36-384.64 0-163.543 108.298-302.881 260.711-358.521v136.927c-78.18 46.233-130.355 128.07-130.355 221.593 0 144.455 124.028 261.552 277.005 261.552 152.989 0 277-117.097 277-261.552 0-79.859-38.01-151.233-97.76-199.215V230.455c134.977 62.657 228.11 193.397 228.11 345.011.009 212.414-182.374 384.63-407.35 384.63zm0 0" fill="#fff"/></svg>